<svg height="512pt" viewBox="-69 0 512 512.00022" width="512pt" xmlns="http://www.w3.org/2000/svg"><path d="m185.429688 190.242188 6.5625.632812c.246093.023438.488281.035156.730468.035156 3.816406 0 7.082032-2.902344 7.457032-6.78125.394531-4.125-2.625-7.789062-6.746094-8.183594l-2.234375-.214843 1.503906-15.589844c.394531-4.121094-2.625-7.785156-6.75-8.183594-4.121094-.390625-7.785156 2.625-8.183594 6.746094l-1.917969 19.917969c-.5625 5.847656 3.734376 11.058594 9.578126 11.621094zm0 0"/><path d="m185.722656 233.882812c15.042969 0 28.710938-6.671874 35.792969-17.515624 2.261719-3.46875 1.285156-8.117188-2.183594-10.382813s-8.117187-1.289063-10.378906 2.179687c-4.34375 6.652344-13.660156 10.832032-23.746094 10.710938-10.082031-.140625-19.277343-4.609375-23.429687-11.382812-2.164063-3.527344-6.78125-4.636719-10.3125-2.472657-3.53125 2.164063-4.640625 6.78125-2.476563 10.3125 6.878907 11.21875 20.675781 18.324219 36.003907 18.542969.246093.003906.488281.007812.730468.007812zm0 0"/><path d="m231.710938 170.914062h.105468c4.09375 0 7.441406-3.289062 7.496094-7.394531l.113281-7.90625c.058594-4.140625-3.25-7.546875-7.394531-7.605469-4.105469-.0625-7.546875 3.253907-7.601562 7.394532l-.113282 7.90625c-.058594 4.140625 3.25 7.546875 7.394532 7.605468zm0 0"/><path d="m149.523438 165.90625c4.089843 0 7.4375-3.285156 7.496093-7.394531l.117188-8.1875c.058593-4.140625-3.25-7.546875-7.394531-7.605469-.035157 0-.070313 0-.105469 0-4.09375 0-7.441407 3.289062-7.5 7.394531l-.117188 8.1875c-.058593 4.140625 3.25 7.546875 7.394531 7.605469zm0 0"/><path d="m374.929688 496.632812-5.667969-120.605468c-.066407-25.078125-13.988281-47.691406-36.359375-59.050782-28.046875-14.238281-57.945313-24.347656-88.867188-30.046874-7.992187-1.472657-13.796875-8.457032-13.796875-16.609376v-5.3125c4.695313-2.578124 9.367188-5.535156 13.886719-8.890624 17.316406-12.84375 38.066406-35.6875 38.578125-71.527344l.078125-4.335938s7.164062.175782 14.242188-3.316406l-1.421876 99.773438c-.0625 4.140624 3.25 7.546874 7.390626 7.601562.035156.003906.074218.003906.109374.003906 4.089844 0 7.4375-3.289062 7.496094-7.394531l2.566406-179.992187c.378907-26.539063-10.5-52.183594-29.847656-70.359376-19.339844-18.171874-45.613281-27.425781-72.078125-25.398437-7.738281.59375-15.472656 1.480469-23.246093 1.410156-7.578126-.070312-15.085938-1.269531-22.605469-2.0625-26.394531-2.78125-52.921875 5.71875-72.773438 23.335938-19.855469 17.613281-31.460937 42.9375-31.835937 69.480469l-2.613282 183.386718c-.058593 4.144532 3.25 7.546875 7.390626 7.605469.035156.003906.074218.003906.109374.003906 4.09375 0 7.4375-3.289062 7.496094-7.394531l1.472656-103.148438c4.140626 2.34375 9.246094 4.082032 14.136719 4.160157l-.042969 3.847656c-.511718 35.871094 19.582032 59.292969 36.523438 72.628906 4.472656 3.515625 9.105469 6.636719 13.773438 9.363281v6.535157c0 8.148437-5.800782 15.136719-13.792969 16.609375-30.925781 5.699218-60.824219 15.808594-88.871094 30.046875-22.425781 11.382812-36.359375 34.078125-36.359375 59.230469 0 .117187.00390625.234374.0078125.355468l5.7109375 121.449219c.367188 7.839844 6.808594 13.984375 14.660156 13.984375h339.894532c8.246093 0 15.046874-7.125 14.65625-15.367188zm-77.402344-355.039062-.144532 10.074219c-.109374 7.539062-5.96875 13.59375-14.328124 13.59375-.066407 0 0-.003907 0-.003907s.679687-37.648437.679687-37.644531c7.605469-.003906 13.894531 6.367188 13.792969 13.980469zm-208.601563 20.890625c-4.789062 0-13.9375-6.496094-13.9375-13.988281 0 0 .144531-10.0625.144531-10.066406.105469-7.503907 6.753907-13.71875 14.1875-13.59375-.003906 0-.394531 37.652343-.394531 37.648437zm.625-52.644531-.230469-.003906c-4.886718-.078126-9.613281 1.070312-13.828124 3.300781l.28125-19.589844c.316406-22.332031 10.082031-43.644531 26.792968-58.472656 16.707032-14.824219 39.027344-21.984375 61.246094-19.636719 8.789062.925781 17.597656 1.863281 26.445312 1.96875 7.40625.085938 14.753907-.714844 22.128907-1.28125 22.261719-1.710938 44.382812 6.082031 60.664062 21.378906 16.277344 15.292969 25.433594 36.878906 25.113281 59.210938l-.277343 19.613281c-4.0625-2.300781-8.742188-3.644531-13.730469-3.714844l-.226562-.003906c-.527344-5.734375-4.917969-10.535156-10.703126-11.460937-10.664062-1.699219-47.734374-9.421876-77.101562-37.4375-4.816406-4.597657-12.464844-4.703126-17.410156-.25-30.160156 27.171874-67.433594 33.832031-78.140625 35.230468-5.808594.753906-10.332031 5.433594-11.023438 11.148438zm44.972657 132.796875c-14.285157-11.242188-31.226563-30.886719-30.800782-60.65625l.714844-68.679688c16.007812-2.320312 51.960938-10.351562 82.804688-37.351562 30.054687 27.867187 65.765624 36.917969 81.703124 39.695312l-1.238281 68.703125c-.425781 29.738282-17.917969 48.894532-32.519531 59.722656-17.996094 13.347657-38.808594 19.550782-50.621094 19.691407-11.808594-.476563-32.433594-7.269531-50.042968-21.125zm19.484374 28.625c11.445313 4.773437 22.199219 7.210937 30.183594 7.496093.089844.003907.179688.003907.269532.003907h.050781c8.078125-.058594 19.046875-2.234375 30.769531-6.78125.660156 12.769531 8.863281 23.785156 20.585938 28.191406 2.820312 2.632813 31.3125 27.601563 41.941406 40.503906-13.582032-.621093-29.839844 2.578125-45.257813 9.417969-22.390625 9.9375-37.675781 25.210938-42.886719 42.554688-4.480468.226562-8.902343.648437-13.257812 1.265624l-39.824219-95.148437c10.207031-5.179687 17.078125-15.628906 17.425781-27.503906zm132.625 85.8125c-2.636718 4.695312-7.296874 11.511719-14.765624 17.933593-16.539063 14.230469-38.890626 20.40625-66.53125 18.398438 0 0-.015626.019531-.046876.054688 4.929688-11.71875 16.664063-22.253907 33.347657-29.65625 10.125-4.492188 21.246093-7.355469 31.320312-8.0625 6.464844-.453126 12.246094.027343 16.675781 1.332031zm-265.945312 139.925781-5.6875-120.960938c.0625-19.402343 10.835938-36.898437 28.148438-45.6875 24.964843-12.671874 51.472656-21.917968 78.875-27.519531l39.363281 94.046875c-29.816407 7.601563-56.050781 24.90625-77.070313 51.105469-16.070312 20.027344-24.828125 39.835937-28.367187 49.015625zm246.929688 0h-76.738282c3.726563-24.089844 24.636719-42.613281 49.726563-42.613281h27.011719zm-27.015626-57.613281c-33.359374 0-61.027343 25.230469-64.859374 57.613281h-103.554688c4.152344-9.554688 11.894531-24.847656 24.144531-40.019531 26.050781-32.253907 59.328125-48.910157 98.917969-49.507813 6.960938.871094 13.492188 1.269532 19.617188 1.269532 33.125 0 54.296874-11.621094 66.785156-22.363282 6.773437-5.824218 12.074218-12.632812 17.007812-20.015625 7.117188 11.027344 11.765625 24.84375 9.65625 38.035157-2.5 15.667968-14.066406 28.898437-28.511718 34.988281zm42.015626 57.613281v-42.613281h18.542968c11.261719 0 20.933594-10.1875 20.40625-21.390625l-.78125-16.691406c3.605469-10.519532 4.078125-21.753907 1.351563-32.597657-2.378907-9.457031-8.230469-26.613281-20.773438-35.949219-10.027343-16.246093-23.09375-29.578124-34.832031-40.335937 20.566406 5.582031 40.523438 13.257813 59.582031 22.933594 17.363281 8.8125 28.148438 26.382812 28.148438 45.855469 0 .117187.003906.234374.007812.351562l5.660157 120.4375zm0 0"/></svg>